<?xml version="1.0" encoding="utf-8"?>
<!-- Generator: Adobe Illustrator 22.0.0, SVG Export Plug-In . SVG Version: 6.00 Build 0)  -->
<svg version="1.1" id="Слой_1" xmlns="http://www.w3.org/2000/svg" xmlns:xlink="http://www.w3.org/1999/xlink" x="0px" y="0px"
	 viewBox="0 0 990 200" style="enable-background:new 0 0 990 200;" xml:space="preserve">
<style type="text/css">
	.st0{fill:#212121;}
	.st1{fill:#E5322D;}
</style>
<g>
	<path class="st0" d="M104.5,175.5c-8,0-15.3-1.4-21.6-4.3c-6.4-2.9-11.6-7-15.7-12.3v13.3H38.6V24.5h27.8v47.4
		c4.3-6.5,9.9-11.5,16.8-15c6.9-3.5,14.6-5.3,23-5.3c10.7,0,20.3,2.7,29,8.2c8.7,5.5,15.4,13,20.4,22.6c4.9,9.6,7.4,20.3,7.4,32.2
		c0,11.8-2.5,22.4-7.4,31.6c-4.9,9.3-11.9,16.5-20.7,21.6C125.9,173,115.8,175.5,104.5,175.5z M99.9,148.4c9.7,0,17.8-3.2,24.5-9.7
		c6.6-6.5,9.9-14.5,9.9-24.1c0-9.8-3.4-18.2-10.2-25.4c-6.8-7.1-14.9-10.7-24.2-10.7c-9.2,0-17.1,3.6-23.7,10.7
		c-6.6,7.1-9.9,15.6-9.9,25.4c0,9.5,3.2,17.5,9.7,24C82.5,145.2,90.5,148.4,99.9,148.4z"/>
	<path class="st0" d="M281.2,170.2c-8.2,3.5-17.1,5.3-26.9,5.3c-9.8,0-18.7-1.8-26.9-5.3c-8.1-3.5-14.8-8.2-20-14
		c-5.2-5.8-9.3-12.4-12.2-19.7c-2.9-7.3-4.3-14.9-4.3-22.7v-0.2c0-6.2,0.9-12.3,2.7-18.2c1.8-6,4.5-11.6,8.1-16.9
		c3.6-5.3,7.9-9.9,12.9-14c5-4,10.9-7.2,17.7-9.5c6.8-2.3,14.2-3.5,22-3.5c9.8,0,18.7,1.8,26.8,5.4c8.1,3.6,14.8,8.4,20.1,14.3
		c5.3,5.9,9.3,12.6,12.2,19.9c2.9,7.4,4.3,15,4.3,22.7s-1.4,15.3-4.3,22.7c-2.9,7.4-6.9,13.9-12.2,19.7
		C296,162,289.3,166.7,281.2,170.2z M229.3,139.9c6.6,6.8,14.9,10.2,24.9,10.2c10,0,18.4-3.4,25-10.2c6.6-6.8,9.9-15.5,9.9-26.1
		c0-10.6-3.3-19.4-9.9-26.4c-6.6-6.9-15-10.4-25-10.4c-10,0-18.3,3.5-24.9,10.4c-6.6,6.9-9.9,15.7-9.9,26.4v0.2
		C219.4,124.5,222.7,133.2,229.3,139.9z"/>
	<path class="st0" d="M610.2,170.2c-8.2,3.5-17.1,5.3-26.9,5.3c-9.8,0-18.7-1.8-26.9-5.3c-8.1-3.5-14.8-8.2-20-14
		c-5.2-5.8-9.3-12.4-12.2-19.7c-2.9-7.3-4.3-14.9-4.3-22.7v-0.2c0-6.2,0.9-12.3,2.7-18.2c1.8-6,4.5-11.6,8.1-16.9
		c3.6-5.3,7.9-9.9,12.9-14c5-4,10.9-7.2,17.7-9.5c6.8-2.3,14.2-3.5,22-3.5c9.8,0,18.7,1.8,26.8,5.4c8.1,3.6,14.8,8.4,20.1,14.3
		c5.3,5.9,9.3,12.6,12.2,19.9c2.9,7.4,4.3,15,4.3,22.7s-1.4,15.3-4.3,22.7c-2.9,7.4-6.9,13.9-12.2,19.7
		C625.1,162,618.4,166.7,610.2,170.2z M558.4,139.9c6.6,6.8,14.9,10.2,24.9,10.2c10,0,18.4-3.4,25-10.2c6.6-6.8,9.9-15.5,9.9-26.1
		c0-10.6-3.3-19.4-9.9-26.4c-6.6-6.9-15-10.4-25-10.4c-10,0-18.3,3.5-24.9,10.4c-6.6,6.9-9.9,15.7-9.9,26.4v0.2
		C548.5,124.5,551.8,133.2,558.4,139.9z"/>
	<path class="st0" d="M733.3,175.5c-17.1,0-31.1-5.7-42.1-17.1c-10.9-11.4-16.4-26-16.4-44c0-11.8,2.5-22.5,7.4-32.2
		c4.9-9.6,11.7-17.2,20.4-22.6c8.7-5.5,18.3-8.2,29-8.2c8.4,0,16.1,1.8,23,5.3c7,3.5,12.6,8.5,16.7,15l0.1-47.4h27.7v147.8h-28.7
		V159c-4.1,5.4-9.3,9.5-15.7,12.3C748.4,174.1,741.2,175.5,733.3,175.5z M737.8,148.4c9.4,0,17.4-3.3,23.9-9.8
		c6.5-6.5,9.7-14.5,9.7-24c0-9.8-3.3-18.3-9.9-25.4c-6.6-7.1-14.5-10.7-23.7-10.7c-9.3,0-17.4,3.6-24.2,10.7
		c-6.8,7.1-10.2,15.6-10.2,25.4c0,9.5,3.3,17.6,9.9,24.1C720,145.2,728.1,148.4,737.8,148.4z"/>
	<path class="st0" d="M885.6,175.5c-17.1,0-31.1-5.7-42.1-17.1c-10.9-11.4-16.4-26-16.4-44c0-11.8,2.5-22.5,7.4-32.2
		c4.9-9.6,11.7-17.2,20.4-22.6c8.7-5.5,18.3-8.2,29-8.2c8.4,0,16.1,1.8,23,5.3c7,3.5,12.6,8.5,16.7,15l0.1-16.1h27.7v116.5h-28.7
		V159c-4.1,5.4-9.3,9.5-15.7,12.3C900.7,174.1,893.5,175.5,885.6,175.5z M890.1,148.4c9.4,0,17.4-3.3,23.9-9.8
		c6.5-6.5,9.7-14.5,9.7-24c0-9.8-3.3-18.3-9.9-25.4c-6.6-7.1-14.5-10.7-23.7-10.7c-9.3,0-17.4,3.6-24.2,10.7
		c-6.8,7.1-10.2,15.6-10.2,25.4c0,9.5,3.3,17.6,9.9,24.1C872.3,145.2,880.4,148.4,890.1,148.4z"/>
	<g>
		<path class="st0" d="M447,53.5c9.2-16.3,19.4-24.7,27.8-29c11.2,0,10.4,0,17.2,0v136v15h-24.4c-9.7-15.2-16.5-71.4-16.5-71.4
			c-16.8,18.7-32.3,29.4-32.3,29.4V116C430.5,85,427,89,447,53.5z"/>
		<path class="st1" d="M390.7,53.5c-9.2-16.3-19.4-24.7-27.8-29c-11.2,0-10.4,0-17.2,0v136v15h24.4c9.7-15.2,16.5-71.4,16.5-71.4
			c16.8,18.7,32.3,29.4,32.3,29.4V116C407.2,85,410.7,89,390.7,53.5z"/>
	</g>
</g>
</svg>
