<?xml version="1.0" encoding="iso-8859-1"?>
<!-- Generator: Adobe Illustrator 22.0.0, SVG Export Plug-In . SVG Version: 6.00 Build 0)  -->
<svg version="1.1" id="&#x421;&#x43B;&#x43E;&#x439;_1"
	 xmlns="http://www.w3.org/2000/svg" xmlns:xlink="http://www.w3.org/1999/xlink" x="0px" y="0px" viewBox="0 0 283.465 283.465"
	 style="enable-background:new 0 0 283.465 283.465;" xml:space="preserve">
<g>
	<g>
		<path d="M87.49,140.928c-2.976-2.975-6.622-4.483-10.837-4.483c-4.216,0-7.871,1.508-10.865,4.481
			c-2.997,2.975-4.516,6.551-4.516,10.628c0,4.07,1.494,7.681,4.441,10.734c2.956,3.064,6.545,4.617,10.669,4.617h0.542
			c4.166,0,7.756-1.544,10.671-4.589c2.905-3.033,4.378-6.643,4.378-10.731C91.973,147.489,90.465,143.904,87.49,140.928z
			 M88.044,151.704c0,3.154-1.09,5.806-3.334,8.105c-2.235,2.292-4.852,3.406-7.997,3.406c-3.15,0-5.798-1.117-8.097-3.415
			c-2.298-2.298-3.415-4.937-3.415-8.066c0-3.133,1.119-5.793,3.42-8.132c2.299-2.335,4.936-3.47,8.061-3.47
			c3.124,0,5.74,1.125,7.998,3.438C86.944,145.889,88.044,148.551,88.044,151.704z"/>
		<polygon points="65.713,162.288 65.713,162.288 65.713,162.287 		"/>
	</g>
	<path d="M179.393,140.928c-2.975-2.975-6.621-4.483-10.837-4.483c-4.215,0-7.871,1.508-10.864,4.481
		c-2.997,2.975-4.517,6.551-4.517,10.628c0,4.07,1.494,7.681,4.44,10.733c2.957,3.064,6.546,4.617,10.669,4.617h0.543
		c4.165,0,7.755-1.544,10.671-4.589c2.906-3.033,4.379-6.644,4.379-10.731C183.878,147.489,182.369,143.904,179.393,140.928z
		 M179.948,151.704c0,3.154-1.091,5.806-3.334,8.105c-2.236,2.292-4.852,3.406-7.997,3.406c-3.15,0-5.799-1.117-8.097-3.415
		c-2.298-2.299-3.415-4.938-3.415-8.066c0-3.132,1.119-5.792,3.421-8.132c2.299-2.335,4.936-3.47,8.061-3.47
		c3.123,0,5.739,1.125,7.997,3.438C178.847,145.89,179.948,148.551,179.948,151.704z"/>
	<g>
		<polygon points="28.152,162.288 28.152,162.288 28.151,162.287 		"/>
		<path d="M49.928,140.928c-2.976-2.975-6.622-4.483-10.837-4.483c-4.216,0-7.871,1.508-10.865,4.481
			c-0.597,0.593-1.119,1.216-1.598,1.855V124.65h-4.083v41.478h4.083v-5.671c0.459,0.628,0.956,1.243,1.523,1.831
			c2.956,3.064,6.545,4.617,10.669,4.617h0.542c4.166,0,7.756-1.544,10.671-4.589c2.905-3.033,4.378-6.643,4.378-10.731
			C54.412,147.489,52.904,143.904,49.928,140.928z M50.483,151.704c0,3.154-1.09,5.806-3.334,8.105
			c-2.235,2.292-4.852,3.406-7.997,3.406c-3.15,0-5.798-1.117-8.097-3.415c-2.298-2.298-3.415-4.937-3.415-8.066
			c0-3.133,1.119-5.793,3.42-8.132c2.299-2.335,4.936-3.47,8.061-3.47c3.124,0,5.74,1.125,7.998,3.438
			C49.383,145.889,50.483,148.551,50.483,151.704z"/>
	</g>
	<path d="M217.836,124.65v16.762c-0.149-0.161-0.286-0.327-0.443-0.484c-2.975-2.975-6.621-4.483-10.837-4.483
		c-4.215,0-7.871,1.508-10.864,4.481c-2.997,2.975-4.517,6.551-4.517,10.628c0,4.07,1.494,7.681,4.44,10.733
		c2.957,3.064,6.546,4.617,10.669,4.617h0.543c4.165,0,7.755-1.544,10.671-4.589c0.12-0.125,0.222-0.257,0.337-0.384v4.197h4.083
		V124.65H217.836z M217.836,153.301c-0.315,2.465-1.369,4.609-3.222,6.509c-2.236,2.292-4.852,3.406-7.997,3.406
		c-3.15,0-5.799-1.117-8.097-3.415c-2.298-2.299-3.415-4.938-3.415-8.066c0-3.132,1.119-5.792,3.421-8.132
		c2.299-2.335,4.936-3.47,8.061-3.47c3.123,0,5.739,1.125,7.997,3.438c1.872,1.918,2.936,4.075,3.253,6.544V153.301z"/>
	<path d="M256.836,137.445v4.173c-0.208-0.231-0.407-0.466-0.631-0.69c-2.975-2.975-6.621-4.483-10.837-4.483
		c-4.215,0-7.871,1.508-10.864,4.481c-2.997,2.975-4.517,6.551-4.517,10.628c0,4.07,1.494,7.681,4.44,10.733
		c2.957,3.064,6.546,4.617,10.669,4.617h0.543c4.165,0,7.755-1.544,10.671-4.589c0.187-0.195,0.351-0.399,0.526-0.599v4.412h4.083
		v-28.683H256.836z M256.76,151.704c0,3.154-1.091,5.806-3.334,8.105c-2.236,2.292-4.852,3.406-7.997,3.406
		c-3.15,0-5.799-1.117-8.097-3.415c-2.298-2.299-3.415-4.938-3.415-8.066c0-3.132,1.119-5.792,3.421-8.132
		c2.299-2.335,4.936-3.47,8.061-3.47c3.123,0,5.739,1.125,7.997,3.438C255.659,145.89,256.76,148.551,256.76,151.704z"/>
	<polygon style="fill:#E5322D;" points="95.045,116.545 119.962,141.045 146.045,116.545 146.061,166.92 137.977,166.92 
		137.961,136.305 120.045,153.378 95.045,128.128 	"/>
</g>
</svg>
