<svg xmlns="http://www.w3.org/2000/svg" width="100" height="100" viewBox="0 0 100 100">
    <g fill="none" fill-rule="evenodd" stroke="#222" stroke-width="2.2">
        <path stroke-linejoin="round" d="M45.063 34.75c0 6.403-5.132 11.59-11.459 11.59-6.33 0-11.458-5.187-11.458-11.59s5.129-11.59 11.458-11.59c6.327 0 11.459 5.187 11.459 11.59z"/>
        <path stroke-linecap="round" stroke-linejoin="round" d="M38.188 37.068h-4.584v-8.113M58.813 50.977h10.312l5.73 9.273v6.955h-5.93"/>
        <path stroke-linecap="round" stroke-linejoin="round" d="M46.01 67.205h12.828l-.025-23.182H47.354M33.604 50.977v16.228h5.929M69.125 68.364c0 1.92-1.538 3.477-3.438 3.477-1.897 0-3.437-1.558-3.437-3.477 0-1.922 1.54-3.478 3.438-3.478 1.9 0 3.437 1.556 3.437 3.478z"/>
        <path stroke-linecap="round" stroke-linejoin="round" d="M46.208 68.364c0 1.92-1.537 3.477-3.437 3.477-1.898 0-3.438-1.558-3.438-3.477 0-1.922 1.54-3.478 3.438-3.478 1.9 0 3.437 1.556 3.437 3.478zM22.146 55.614l6.875.011M25.583 60.25l3.438.012M27.875 64.886l1.146.012M74.854 60.25H58.813M58.837 67.205h3.625"/>
        <circle cx="50" cy="50" r="48.9"/>
    </g>
</svg>
