<svg xmlns="http://www.w3.org/2000/svg" width="100" height="100" viewBox="0 0 100 100">
    <defs>
        <circle id="a" cx="50" cy="50" r="50"/>
    </defs>
    <g fill="none" fill-rule="evenodd">
        <circle cx="50" cy="50" r="48.9" stroke="#222" stroke-width="2.2"/>
        <path stroke="#222" stroke-width="2.2" d="M75 68H49c-1.1 0-2-.9-2-2V50c0-1.1.9-2 2-2h26c1.1 0 2 .9 2 2v16c0 1.1-.9 2-2 2zM53 56h13M47 62h30M42.7 61.5c-.9-.9-1.5-2.2-1.5-3.5 0-1.4.6-2.6 1.5-3.5M39.9 64.4c-1.6-1.6-2.6-3.9-2.6-6.4 0-2.5 1-4.7 2.6-6.4"/>
        <path d="M30 73h48V25H30z"/>
        <path stroke="#222" stroke-width="2.2" d="M35 44h16v-4H35zM34 36h18M37 36h12V26H37z"/>
        <path stroke="#222" stroke-width="2.2" d="M49 32h4c1.1 0 2 .9 2 2v14M55 68v2c0 1.1-.9 2-2 2H33c-1.1 0-2-.9-2-2V34c0-1.1.9-2 2-2h4"/>
    </g>
</svg>
