<svg xmlns="http://www.w3.org/2000/svg" width="100" height="100" viewBox="0 0 100 100">
    <g fill="none" fill-rule="evenodd">
        <path stroke="#222" stroke-width="2.2" d="M31 37.1a4.9 4.9 0 0 0-4.9 4.9v23a4.9 4.9 0 0 0 4.9 4.9h38a4.9 4.9 0 0 0 4.9-4.9V42a4.9 4.9 0 0 0-4.9-4.9H31z"/>
        <path fill="#222" d="M25 48h50v2.2H25z"/>
        <path fill="#222" d="M50 36h2.2v35H50z"/>
        <g stroke="#222" stroke-width="2.2">
            <path d="M50.184 32.931c-.266-4.488-2.137-7.734-5.01-9.514-2.516-1.56-5.467-1.67-6.846-.521-1.25 1.04-1.15 3.395.579 5.533 2.089 2.582 5.966 4.29 11.277 4.502zM50.78 32.931c.266-4.488 2.137-7.734 5.01-9.514 2.516-1.56 5.467-1.67 6.846-.521 1.25 1.04 1.15 3.395-.579 5.533-2.089 2.582-5.966 4.29-11.277 4.502z"/>
        </g>
        <circle cx="50" cy="50" r="48.9" stroke="#222" stroke-width="2.2"/>
    </g>
</svg>
